<svg xmlns="http://www.w3.org/2000/svg" viewBox="0 0 508.065 508.065" style="enable-background:new 0 0 508.065 508.065" xml:space="preserve"><path d="M401.482 51.5h-43.7c-2.5 0-4.7-1.5-5.7-3.8l-11.5-26.8c-5.5-12.7-17.9-20.9-31.7-20.9h-69.2c-13.8 0-26.2 8.2-31.6 20.9l-11.5 26.8c-1 2.3-3.2 3.8-5.7 3.8h-84.3c-19 0-34.4 15.4-34.4 34.4v159.3c0 19 15.4 34.4 34.4 34.4h294.9c19 0 34.4-15.4 34.4-34.4V85.9c0-19-15.5-34.4-34.4-34.4zm0 199.9h-295c-3.4 0-6.2-2.8-6.2-6.2v-53.5h11.1c7.8 0 14.1-6.3 14.1-14.1s-6.3-14.1-14.1-14.1h-11.1v-28.2h39.3c7.8 0 14.1-6.3 14.1-14.1s-6.3-14.1-14.1-14.1h-39.3V85.9c0-3.4 2.8-6.2 6.2-6.2h84.3c13.8 0 26.2-8.2 31.6-20.9l11.6-26.8c1-2.3 3.2-3.8 5.7-3.8h69.2c2.5 0 4.7 1.5 5.7 3.8l11.5 26.8c5.4 12.7 17.8 20.9 31.6 20.9h43.7c3.4 0 6.2 2.8 6.2 6.2v159.3h.1c0 3.4-2.8 6.2-6.2 6.2zM127.782 8.5h-15.1c-7.8 0-14.1 6.3-14.1 14.1s6.4 14.1 14.1 14.1h15.1c7.8 0 14.1-6.3 14.1-14.1s-6.3-14.1-14.1-14.1zM392.483 485.7l-111.3-158.2h29.1c7.8 0 14.1-6.3 14.1-14.1s-6.3-14.1-14.1-14.1h-112.6c-7.8 0-14.1 6.3-14.1 14.1s6.3 14.1 14.1 14.1h29.1l-111.3 158.3c-4.5 6.4-2.9 15.2 3.4 19.7 6.4 4.5 15.2 2.9 19.7-3.4l101.3-144v100.4c0 7.8 6.3 14.1 14.1 14.1s14.1-6.3 14.1-14.1V358l101.3 144c4.5 6.4 13.3 7.9 19.7 3.4s7.9-13.3 3.4-19.7z"/><path d="M275.382 89.7c-40 0-72.6 32.6-72.6 72.6s32.6 72.6 72.6 72.6c40.1 0 72.6-32.6 72.6-72.6s-32.5-72.6-72.6-72.6zm0 117.1c-24.5 0-44.4-19.9-44.4-44.4s19.9-44.4 44.4-44.4 44.4 19.9 44.4 44.4-19.9 44.4-44.4 44.4z"/></svg>